<?xml version="1.0" encoding="UTF-8"?><!-- Generator: xmCHART 5.0 beta0301 - https://www.x2max.com --><svg width="320px" height="180px" viewBox="0 0 320 180" version="1.1" baseProfile="full" xmlns="http://www.w3.org/2000/svg" xmlns:xlink="http://www.w3.org/1999/xlink" xmlns:ev="http://www.w3.org/2001/xml-events"><defs><clipPath id="clip_path_1"><rect x="0" y="0" width="320" height="180"/></clipPath><clipPath id="clip_path_2"><rect x="28.362" y="13.362" width="273.275" height="143.275"/></clipPath></defs><g style="clip-path:url(#clip_path_1)"><g style="clip-path:url(#clip_path_1)"><path id="element_1" d="M40 145H290" style="fill:none;stroke:#e6e6e6"/><path id="element_2" d="M40 115H290" style="fill:none;stroke:#e6e6e6"/><path id="element_3" d="M40 85H290" style="fill:none;stroke:#e6e6e6"/><path id="element_4" d="M40 55H290" style="fill:none;stroke:#e6e6e6"/><path id="element_5" d="M40 25H290" style="fill:none;stroke:#e6e6e6"/><path id="element_6" d="M40 145V25" style="fill:none;stroke:#e6e6e6"/><path id="element_7" d="M90 145V25" style="fill:none;stroke:#e6e6e6"/><path id="element_8" d="M140 145V25" style="fill:none;stroke:#e6e6e6"/><path id="element_9" d="M190 145V25" style="fill:none;stroke:#e6e6e6"/><path id="element_10" d="M240 145V25" style="fill:none;stroke:#e6e6e6"/><path id="element_11" d="M290 145V25" style="fill:none;stroke:#e6e6e6"/></g><g style="clip-path:url(#clip_path_1)"><text id="element_12" x="62.219" y="156.846" style="font-family:Arial,sans-serif;font-size:10px">1</text><text id="element_13" x="112.219" y="156.846" style="font-family:Arial,sans-serif;font-size:10px">2</text><text id="element_14" x="162.219" y="156.846" style="font-family:Arial,sans-serif;font-size:10px">3</text><text id="element_15" x="212.219" y="156.846" style="font-family:Arial,sans-serif;font-size:10px">4</text><text id="element_16" x="262.219" y="156.846" style="font-family:Arial,sans-serif;font-size:10px">5</text></g><g style="clip-path:url(#clip_path_1)"><text id="element_17" x="31.646" y="148.467" style="font-family:Arial,sans-serif;font-size:10px">0</text><text id="element_18" x="26.084" y="118.467" style="font-family:Arial,sans-serif;font-size:10px">10</text><text id="element_19" x="26.084" y="88.467" style="font-family:Arial,sans-serif;font-size:10px">20</text><text id="element_20" x="26.084" y="58.467" style="font-family:Arial,sans-serif;font-size:10px">30</text><text id="element_21" x="26.084" y="28.467" style="font-family:Arial,sans-serif;font-size:10px">40</text></g><g style="clip-path:url(#clip_path_2)"><path id="element_22" d="M65 70L115 58L165 67L215 64L265 43" style="fill:none;stroke:#00a652"/></g><g style="clip-path:url(#clip_path_2)"><path id="element_23" d="M61.85 66.85V73.15H68.15V66.85Z" style="fill:#00a652;stroke:#00a652"/><path id="element_24" d="M111.85 54.85V61.15H118.15V54.85Z" style="fill:#00a652;stroke:#00a652"/><path id="element_25" d="M161.85 63.85V70.15H168.15V63.85Z" style="fill:#00a652;stroke:#00a652"/><path id="element_26" d="M211.85 60.85V67.15H218.15V60.85Z" style="fill:#00a652;stroke:#00a652"/><path id="element_27" d="M261.85 39.85V46.15H268.15V39.85Z" style="fill:#00a652;stroke:#00a652"/></g><g style="clip-path:url(#clip_path_2)"><path id="element_28" d="M65 91L115 103L165 94L215 79L265 85" style="fill:none;stroke:#fdb912"/></g><g style="clip-path:url(#clip_path_2)"><path id="element_29" d="M68.5 91C68.5 89.067 66.933 87.5 65 87.5S61.5 89.067 61.5 91S63.067 94.5 65 94.5S68.5 92.933 68.5 91Z" style="fill:#fdb912;stroke:#fdb912;stroke-linecap:square;stroke-miterlimit:10"/><path id="element_30" d="M118.5 103C118.5 101.067 116.933 99.5 115 99.5S111.5 101.067 111.5 103S113.067 106.5 115 106.5S118.5 104.933 118.5 103Z" style="fill:#fdb912;stroke:#fdb912;stroke-linecap:square;stroke-miterlimit:10"/><path id="element_31" d="M168.5 94C168.5 92.067 166.933 90.5 165 90.5S161.5 92.067 161.5 94S163.067 97.5 165 97.5S168.5 95.933 168.5 94Z" style="fill:#fdb912;stroke:#fdb912;stroke-linecap:square;stroke-miterlimit:10"/><path id="element_32" d="M218.5 79C218.5 77.067 216.933 75.5 215 75.5S211.5 77.067 211.5 79S213.067 82.5 215 82.5S218.5 80.933 218.5 79Z" style="fill:#fdb912;stroke:#fdb912;stroke-linecap:square;stroke-miterlimit:10"/><path id="element_33" d="M268.5 85C268.5 83.067 266.933 81.5 265 81.5S261.5 83.067 261.5 85S263.067 88.5 265 88.5S268.5 86.933 268.5 85Z" style="fill:#fdb912;stroke:#fdb912;stroke-linecap:square;stroke-miterlimit:10"/></g><g style="clip-path:url(#clip_path_2)"><path id="element_34" d="M65 136L115 133L165 115L215 124L265 106" style="fill:none;stroke:#3979aa"/></g><g style="clip-path:url(#clip_path_2)"><path id="element_35" d="M67.475 133.525L62.525 138.475M67.475 138.475L62.525 133.525" style="fill:none;stroke:#3979aa"/><path id="element_36" d="M117.475 130.525L112.525 135.475M117.475 135.475L112.525 130.525" style="fill:none;stroke:#3979aa"/><path id="element_37" d="M167.475 112.525L162.525 117.475M167.475 117.475L162.525 112.525" style="fill:none;stroke:#3979aa"/><path id="element_38" d="M217.475 121.525L212.525 126.475M217.475 126.475L212.525 121.525" style="fill:none;stroke:#3979aa"/><path id="element_39" d="M267.475 103.525L262.525 108.475M267.475 108.475L262.525 103.525" style="fill:none;stroke:#3979aa"/></g></g></svg>