<?xml version="1.0" standalone="no"?>
<!DOCTYPE svg PUBLIC "-//W3C//DTD SVG 20010904//EN"
 "http://www.w3.org/TR/2001/REC-SVG-20010904/DTD/svg10.dtd">
<svg version="1.0" xmlns="http://www.w3.org/2000/svg"
 width="2540.000000pt" height="2597.000000pt" viewBox="0 0 2540.000000 2597.000000"
 preserveAspectRatio="xMidYMid meet">

<g transform="translate(0.000000,2597.000000) scale(0.100000,-0.100000)"
fill="#000000" stroke="none">
<path d="M12581 25943 c-7 -15 -161 -365 -343 -778 -333 -757 -377 -851 -431
-912 -33 -37 -114 -83 -147 -83 -16 0 -20 -6 -20 -35 l0 -35 310 0 310 0 0 34
0 35 -57 6 c-90 11 -127 23 -154 51 -20 22 -24 35 -23 87 1 50 11 85 52 182
l50 120 314 3 314 2 72 -168 c40 -93 72 -179 72 -191 0 -53 -43 -81 -124 -81
-70 0 -86 -8 -86 -44 l0 -31 442 3 443 3 324 -55 c178 -31 328 -53 332 -50 5
3 9 18 9 34 0 26 -4 29 -42 35 -53 9 -94 29 -131 64 -43 39 -57 74 -57 140 0
52 185 1169 195 1179 4 5 -19 45 495 -868 243 -432 442 -786 443 -787 1 -1 15
-3 31 -5 l30 -3 132 773 c73 424 140 796 148 826 28 96 87 136 202 136 53 0
64 8 64 48 0 14 -47 25 -300 68 -166 28 -302 48 -304 45 -2 -3 -6 -18 -9 -32
-6 -24 -3 -27 51 -42 123 -35 162 -81 162 -194 0 -55 -114 -782 -133 -846 -1
-5 -155 269 -341 607 -260 475 -343 617 -359 621 -12 3 -156 28 -321 56 -317
54 -315 54 -316 3 0 -16 10 -23 52 -33 60 -16 119 -70 157 -145 l24 -47 -112
-657 c-126 -742 -127 -747 -211 -790 -39 -20 -56 -23 -122 -19 -76 4 -77 3
-81 -22 l-4 -26 -2 27 c-1 22 -7 27 -39 33 -80 13 -126 60 -195 196 -21 41
-189 414 -375 829 -358 798 -360 802 -391 733z m-2 -928 l119 -270 -251 -3
c-137 -1 -252 -1 -254 1 -2 3 46 119 108 258 61 140 118 270 126 289 14 32 16
33 24 15 5 -11 63 -141 128 -290z"/>
<path d="M10855 25801 l-450 -66 -3 -34 -3 -33 75 7 c129 12 183 -23 204 -131
13 -67 187 -1267 198 -1360 11 -106 -41 -167 -155 -181 -66 -8 -75 -14 -67
-50 l7 -30 467 68 c257 38 470 69 475 69 4 0 7 15 7 34 l0 33 -92 -4 c-86 -5
-96 -3 -128 19 -22 15 -40 38 -48 62 -13 40 -198 1296 -208 1414 -4 57 -2 72
16 100 24 39 82 67 158 77 41 5 52 11 52 25 0 33 -12 50 -34 49 -11 -1 -223
-31 -471 -68z"/>
<path d="M9344 25460 c-139 -18 -292 -59 -1016 -271 l-67 -19 11 -31 c9 -26
14 -30 37 -25 135 30 178 27 219 -17 29 -31 31 -36 227 -712 206 -711 209
-725 201 -768 -10 -54 -63 -95 -155 -123 -44 -13 -48 -16 -43 -40 2 -14 10
-28 17 -30 12 -5 767 209 907 257 214 73 414 220 524 386 275 415 61 1124
-403 1329 -125 55 -315 82 -459 64z m62 -205 c123 -60 224 -177 310 -359 94
-200 143 -397 151 -606 8 -212 -19 -310 -113 -410 -80 -86 -254 -152 -312
-119 -15 8 -33 28 -41 43 -10 22 -421 1427 -421 1441 0 7 72 27 144 41 110 21
197 12 282 -31z"/>
<path d="M16843 25237 c-9 -18 -12 -32 -6 -34 6 -2 31 -17 56 -33 50 -31 75
-72 101 -161 l17 -56 -261 -604 c-144 -332 -270 -618 -281 -636 -31 -49 -84
-90 -126 -97 -34 -6 -66 0 -168 29 -16 5 -23 -1 -32 -25 -11 -28 -10 -32 10
-39 12 -5 148 -63 301 -130 154 -67 283 -118 287 -114 4 5 11 20 14 34 6 23 3
28 -26 38 -46 16 -95 56 -126 102 -22 34 -25 47 -21 101 4 55 32 128 238 605
129 298 236 540 238 538 2 -2 120 -415 261 -917 240 -852 259 -914 284 -928
14 -8 28 -12 30 -10 2 3 144 331 316 730 172 398 327 746 344 772 21 32 47 56
74 69 42 20 73 19 174 -6 21 -5 27 -1 38 21 6 15 8 30 4 34 -8 8 -517 229
-544 237 -9 3 -20 -6 -27 -22 -16 -35 -18 -32 31 -56 127 -64 154 -146 98
-296 -36 -97 -299 -705 -310 -716 -4 -4 -88 291 -186 655 -98 365 -181 669
-185 676 -4 8 -140 71 -304 142 l-296 128 -17 -31z"/>
<path d="M7043 24657 c-20 -9 -21 -14 -16 -77 6 -67 5 -68 -24 -83 -16 -9 -82
-20 -148 -27 -202 -18 -329 -73 -451 -194 -211 -210 -220 -519 -23 -730 140
-150 313 -191 747 -179 157 4 237 3 283 -6 242 -48 326 -262 170 -433 -93
-102 -205 -143 -370 -136 -174 8 -287 61 -442 206 -81 77 -90 82 -111 71 -13
-6 -25 -13 -27 -15 -4 -3 328 -614 334 -614 2 0 16 5 30 12 20 9 25 18 25 47
0 47 30 101 67 123 16 10 78 24 138 33 180 25 274 60 401 151 113 80 185 176
230 307 105 305 -56 605 -371 693 -49 14 -130 18 -445 24 -325 5 -392 9 -428
23 -68 26 -99 53 -128 113 -22 45 -26 63 -21 104 12 99 74 178 185 232 56 28
78 33 160 36 175 8 303 -41 432 -164 l79 -75 30 15 30 16 -48 83 c-26 45 -92
159 -146 252 -126 219 -115 204 -142 192z"/>
<path d="M18907 24311 l-17 -29 55 -41 c59 -45 85 -84 85 -128 0 -39 -35 -96
-347 -568 -149 -225 -284 -437 -301 -470 -94 -188 -95 -333 -5 -515 83 -170
350 -365 578 -425 81 -21 196 -19 288 4 197 51 244 102 642 699 166 249 284
416 307 435 58 47 121 49 204 7 63 -32 65 -33 79 -14 8 10 14 24 14 29 0 9
-493 343 -522 354 -5 2 -18 -7 -27 -19 -18 -23 -17 -24 51 -90 69 -67 69 -67
69 -123 0 -73 -10 -91 -285 -507 -256 -387 -318 -472 -399 -548 -143 -135
-337 -149 -511 -37 -71 45 -120 96 -152 158 -23 43 -27 65 -28 128 0 72 3 83
43 160 42 80 561 874 646 989 48 63 101 95 145 85 16 -3 60 -24 97 -47 l67
-40 18 23 c10 13 19 26 19 29 0 4 -739 496 -784 522 -8 4 -19 -4 -29 -21z"/>
<path d="M4941 23326 c-9 -11 28 -180 185 -837 108 -453 201 -862 207 -909 13
-110 4 -167 -38 -230 l-33 -49 19 -25 20 -25 244 187 c134 103 244 189 244
192 0 3 -8 16 -18 29 l-18 23 -75 -41 c-117 -64 -172 -52 -222 47 -22 44 -83
269 -75 276 2 2 114 87 247 190 l244 187 140 -78 c237 -131 251 -157 142 -261
-66 -63 -66 -63 -48 -85 10 -12 20 -24 21 -25 1 -2 161 119 356 269 l355 273
-20 27 -21 28 -36 -20 c-54 -29 -122 -25 -216 15 -44 18 -415 216 -823 440
-409 224 -750 410 -756 412 -7 3 -18 -2 -25 -10z m577 -791 c127 -71 232 -131
232 -134 -1 -7 -381 -299 -395 -303 -7 -2 -153 568 -155 605 0 5 19 -2 43 -15
23 -13 147 -82 275 -153z"/>
<path d="M20710 22811 c-86 -28 -139 -59 -202 -119 -118 -112 -160 -214 -160
-382 0 -127 23 -222 107 -450 92 -248 107 -304 109 -400 1 -78 -2 -90 -30
-140 -22 -38 -46 -64 -79 -85 -44 -27 -56 -30 -134 -30 -106 0 -159 23 -240
104 -69 69 -114 158 -137 270 -29 148 -5 288 79 458 39 81 40 83 22 103 -10
11 -21 20 -25 20 -6 0 -320 -338 -453 -487 -19 -22 -19 -24 -3 -42 15 -17 27
-19 89 -14 95 7 112 -7 181 -146 93 -184 197 -297 347 -376 340 -179 725 -21
815 335 34 135 3 296 -127 647 -111 298 -123 403 -59 492 63 87 184 111 291
58 66 -32 147 -113 182 -183 28 -56 57 -181 57 -246 0 -75 -28 -180 -70 -266
l-41 -83 23 -19 c13 -11 26 -19 29 -20 3 0 97 105 208 232 201 231 202 233
181 250 -20 17 -23 16 -70 -10 -39 -22 -53 -25 -75 -17 -29 11 -39 27 -113
185 -83 176 -222 303 -387 356 -95 30 -231 32 -315 5z"/>
<path d="M3526 22008 c-312 -326 -565 -596 -564 -600 2 -4 84 -85 182 -178
l180 -171 24 25 25 24 -26 34 c-14 18 -41 65 -58 103 -26 55 -34 85 -37 150
-4 74 -2 87 24 140 17 34 61 92 105 139 l75 79 545 -520 c299 -287 549 -529
555 -540 34 -57 21 -127 -35 -188 -54 -59 -56 -63 -36 -85 10 -11 21 -20 25
-20 7 0 535 548 624 648 l39 43 -23 24 -22 23 -30 -34 c-34 -38 -97 -78 -140
-88 -45 -10 -89 16 -194 116 -376 357 -796 758 -887 847 l-108 105 83 84 c92
93 133 118 213 133 76 14 147 -1 260 -55 l93 -44 21 22 21 23 -184 177 -185
177 -565 -593z"/>
<path d="M22046 21871 c-16 -17 -16 -22 -2 -56 9 -21 16 -48 16 -61 0 -43 -91
-200 -538 -929 -406 -661 -441 -721 -428 -740 7 -11 20 -21 29 -23 9 -2 280
60 602 138 323 78 588 140 591 137 3 -2 -142 -235 -321 -516 -321 -505 -325
-512 -309 -536 9 -14 22 -25 29 -25 6 0 362 99 791 219 428 121 826 231 883
246 119 30 165 27 212 -12 27 -23 33 -24 55 -12 14 7 23 19 22 26 -4 18 -271
382 -281 382 -4 1 -18 -6 -31 -14 l-24 -16 29 -52 c39 -71 38 -111 -5 -151
-18 -18 -55 -40 -80 -50 -60 -23 -920 -265 -925 -261 -5 5 516 823 556 873 29
35 40 42 71 42 31 0 44 -8 89 -55 52 -56 52 -56 78 -39 14 9 24 20 23 24 -10
24 -525 709 -533 709 -5 0 -19 -6 -30 -15 -19 -14 -19 -15 10 -67 56 -100 40
-153 -119 -407 l-85 -135 -345 -86 c-190 -48 -344 -84 -342 -80 21 39 491 804
527 857 86 128 122 140 197 70 47 -44 48 -44 71 -27 13 10 22 22 20 28 -10 26
-465 632 -475 633 -6 0 -19 -9 -28 -19z"/>
<path d="M2672 21023 c-44 -59 -172 -234 -286 -388 l-205 -280 26 -23 c14 -13
29 -20 32 -15 4 4 24 29 45 56 40 50 99 87 139 87 34 0 87 -36 632 -435 579
-423 602 -441 621 -477 28 -53 10 -122 -53 -205 l-24 -31 29 -20 28 -21 275
376 c151 206 278 381 282 389 6 10 1 21 -15 34 -13 11 -25 19 -28 19 -3 0 -20
-22 -39 -48 -71 -99 -146 -121 -230 -67 -55 35 -1072 778 -1123 820 -20 17
-45 48 -54 69 -21 47 -10 94 43 174 20 29 34 54 32 56 -2 1 -14 10 -26 21 -22
18 -22 18 -101 -91z"/>
<path d="M1882 19968 c-18 -18 -15 -26 23 -71 59 -69 48 -95 -80 -187 -151
-109 -250 -247 -290 -405 -80 -318 144 -632 466 -653 159 -10 308 50 602 243
98 64 206 130 241 146 204 95 368 30 407 -163 9 -44 8 -66 -5 -119 -44 -170
-198 -309 -394 -355 -110 -26 -294 -13 -428 30 -17 5 -24 1 -34 -24 -7 -17
-11 -32 -9 -34 12 -11 593 -336 601 -336 5 0 14 11 20 26 10 20 9 30 -6 55
-24 40 -25 108 -4 141 10 15 62 65 117 112 192 166 291 359 291 570 0 310
-234 556 -528 556 -142 0 -305 -71 -582 -255 -235 -156 -302 -189 -397 -193
-64 -4 -78 -1 -118 22 -28 17 -55 44 -72 74 -24 40 -28 58 -28 122 0 65 5 85
32 141 57 114 178 207 320 244 96 25 272 16 363 -20 10 -3 22 5 34 25 10 17
16 33 14 34 -7 6 -514 275 -528 281 -9 3 -21 0 -28 -7z"/>
<path d="M4780 17220 l0 -1840 378 0 c207 0 2742 12 5632 26 4160 21 5273 24
5340 15 359 -51 612 -301 725 -714 58 -213 55 6 55 -3785 l0 -3482 1898 2
1897 3 0 4295 c0 4049 -1 4306 -18 4480 -54 564 -160 1002 -336 1397 -327 735
-903 1221 -1643 1389 -256 58 240 54 -7145 54 l-6783 0 0 -1840z"/>
<path d="M22048 18914 c-16 -8 -28 -16 -28 -18 0 -1 61 -127 135 -280 l136
-276 30 16 c23 11 29 20 24 32 -21 49 -45 137 -45 164 0 40 53 93 107 107 23
6 98 12 166 14 l125 2 138 -276 137 -277 -113 -131 c-62 -72 -123 -137 -136
-146 -55 -36 -103 -9 -153 84 l-32 61 -30 -15 c-16 -9 -29 -17 -29 -19 0 -1
89 -185 198 -407 l199 -404 87 -310 c49 -170 89 -311 91 -313 1 -1 16 3 34 9
24 9 30 15 25 28 -11 26 -17 127 -10 165 9 47 48 92 105 120 46 24 1139 342
1146 334 3 -2 -241 -355 -540 -784 -541 -774 -554 -796 -526 -827 4 -4 347 90
762 209 604 174 769 218 829 221 97 5 124 -10 171 -101 32 -64 36 -67 63 -61
16 3 31 7 33 8 2 3 -83 308 -148 529 l-19 67 -31 -11 c-29 -10 -30 -12 -23
-52 11 -63 7 -132 -9 -163 -21 -39 -44 -58 -107 -87 -58 -26 -786 -239 -800
-234 -5 2 173 258 396 570 l404 568 -89 310 c-49 171 -90 313 -92 315 -2 2
-17 1 -32 -2 l-28 -6 7 -68 c6 -62 4 -74 -20 -121 -15 -29 -39 -68 -54 -86
-26 -32 -48 -39 -652 -213 -344 -98 -650 -182 -681 -185 -104 -12 -163 28
-209 140 -15 34 -30 56 -39 56 -12 0 -13 2 -3 9 10 6 11 17 1 54 -16 65 -6
102 50 188 27 41 299 371 605 734 306 363 555 667 554 675 -2 11 -19 16 -58
18 -30 2 -395 -9 -810 -23 -415 -15 -814 -25 -885 -23 -118 3 -136 6 -188 31
-31 16 -69 43 -84 62 -27 32 -29 33 -55 19z m1365 -272 c-32 -37 -125 -147
-208 -244 l-150 -177 -113 231 c-61 127 -111 232 -110 234 3 1 341 14 586 22
l54 2 -59 -68z"/>
<path d="M1255 18226 c-171 -55 -270 -164 -381 -416 -25 -56 -119 -301 -210
-543 -154 -410 -164 -442 -148 -454 31 -23 44 -14 70 44 47 109 97 140 185
119 56 -13 1199 -438 1302 -483 104 -47 129 -108 92 -229 -8 -27 -15 -52 -15
-57 0 -9 51 -30 57 -23 3 2 78 199 168 438 145 385 161 434 147 446 -32 24
-49 14 -73 -44 -12 -31 -38 -72 -57 -92 -34 -34 -37 -34 -96 -29 -44 4 -137
34 -331 107 -148 56 -273 104 -277 106 -4 3 1 26 11 52 l19 47 482 127 c265
69 486 130 490 135 5 4 53 127 108 273 l99 265 -30 13 c-26 12 -32 11 -39 -2
-37 -66 -90 -101 -203 -134 -78 -23 -751 -202 -760 -202 -3 0 -5 31 -5 69 0
246 -128 416 -356 476 -82 21 -167 18 -249 -9z m125 -431 c174 -56 279 -169
279 -305 1 -25 -6 -74 -14 -110 -18 -77 -67 -220 -76 -220 -7 0 -700 260 -711
266 -4 3 4 37 19 77 107 298 239 375 503 292z"/>
<path d="M364 16251 c-4 -20 -69 -358 -144 -751 -97 -504 -134 -717 -126 -722
6 -4 21 -8 33 -8 22 0 26 7 38 70 9 45 37 100 63 123 11 10 38 21 59 24 48 6
1398 -250 1460 -277 71 -31 94 -93 75 -200 -11 -59 -6 -70 35 -70 18 0 23 8
32 53 68 336 281 1474 279 1485 -3 16 -543 206 -559 196 -5 -3 -9 -17 -9 -32
0 -23 10 -33 62 -62 34 -19 97 -69 139 -110 125 -123 168 -242 155 -433 -7
-115 -35 -257 -58 -302 -24 -45 -57 -59 -122 -52 -56 6 -608 108 -615 114 -10
7 35 128 61 164 55 76 174 118 334 119 65 0 83 3 88 16 18 48 32 44 -464 139
-258 49 -471 87 -474 84 -2 -2 -6 -17 -8 -33 -3 -26 1 -30 47 -46 138 -47 252
-129 286 -205 19 -42 26 -178 11 -203 -7 -10 -83 2 -353 54 -189 36 -345 67
-347 69 -5 5 35 214 59 309 35 137 101 237 194 291 53 32 154 55 237 55 63 0
68 2 74 25 3 13 4 30 2 37 -3 7 -107 32 -271 63 l-267 51 -6 -35z"/>
<path d="M24945 15414 c-115 -13 -215 -26 -221 -28 -6 -2 -9 -18 -6 -34 4 -29
7 -31 61 -38 125 -15 245 -71 297 -139 14 -18 33 -57 43 -86 19 -53 46 -237
37 -246 -6 -6 -1439 -162 -1491 -163 -45 0 -96 27 -120 64 -9 13 -22 57 -28
98 -13 73 -13 73 -42 70 -17 -2 -31 -5 -33 -7 -2 -2 20 -212 47 -467 28 -255
51 -470 51 -476 0 -7 15 -12 36 -12 l36 0 -7 73 c-5 57 -3 82 9 112 24 57 42
73 100 85 52 12 1488 170 1494 165 2 -2 8 -59 15 -128 10 -111 9 -129 -6 -169
-44 -115 -105 -173 -247 -235 -72 -31 -75 -34 -78 -69 -3 -34 -2 -36 20 -31
13 3 123 16 245 28 123 13 227 25 232 28 4 3 -32 371 -80 816 -49 446 -89 811
-89 813 0 5 -73 -1 -275 -24z"/>
<path d="M37 14308 c-4 -83 -7 -223 -7 -310 l0 -159 33 3 c31 3 32 4 39 64 19
170 94 205 276 128 188 -81 883 -412 880 -420 -1 -5 -234 -103 -518 -218 -582
-237 -600 -242 -632 -176 -12 24 -18 59 -18 108 l0 72 -34 0 -34 0 -6 -172
c-3 -95 -7 -294 -8 -443 l-3 -270 31 -3 c29 -3 32 0 39 34 15 81 38 108 129
153 68 33 890 372 1579 652 105 42 108 44 105 73 -3 29 -22 39 -763 391 -418
198 -787 376 -820 395 -107 61 -167 132 -199 233 -3 11 -15 17 -34 17 l-29 0
-6 -152z"/>
<path d="M4782 10698 l3 -3253 1743 -3 1742 -2 0 3255 0 3255 -1745 0 -1745 0
2 -3252z"/>
<path d="M24305 13459 c-310 -38 -595 -241 -721 -514 -61 -133 -86 -247 -91
-430 -6 -187 12 -301 69 -432 160 -369 576 -599 1000 -553 231 26 417 117 574
283 172 180 246 396 247 722 1 124 -3 166 -21 240 -84 334 -362 599 -702 669
-100 20 -257 27 -355 15z m210 -499 c464 -43 714 -185 755 -430 30 -180 -56
-344 -223 -424 -98 -47 -169 -64 -320 -77 -144 -13 -405 -1 -562 26 -188 33
-351 104 -445 196 -72 69 -102 136 -108 239 -6 104 13 180 63 257 111 169 432
251 840 213z"/>
<path d="M1811 12441 c-10 -7 -12 -22 -7 -64 13 -100 -24 -178 -92 -197 -65
-18 -1395 -172 -1450 -167 -83 6 -123 56 -137 171 -7 56 -8 56 -41 56 -19 0
-34 -4 -34 -8 0 -5 25 -219 55 -475 30 -256 55 -468 55 -471 0 -3 16 -6 35 -6
l35 0 -6 78 c-11 137 27 182 170 201 244 34 1281 152 1341 153 109 3 145 -33
166 -165 6 -34 11 -62 12 -63 1 -1 17 1 35 3 28 5 33 9 29 27 -3 11 -29 227
-58 479 -51 435 -54 457 -74 457 -11 0 -26 -4 -34 -9z"/>
<path d="M23338 11058 c-63 -249 -112 -456 -109 -460 3 -4 18 -10 33 -13 25
-6 28 -4 38 37 20 72 59 135 96 153 29 13 44 14 96 5 64 -12 580 -139 586
-144 6 -7 -21 -96 -30 -102 -6 -4 -217 -86 -471 -184 l-461 -178 -72 -281 -72
-282 24 -10 c37 -13 40 -12 54 21 21 50 49 79 103 107 29 14 223 93 432 174
l380 148 3 -27 c8 -77 36 -191 59 -236 35 -68 125 -161 187 -191 200 -97 409
-64 562 89 75 75 121 163 179 341 46 142 273 1031 265 1038 -3 2 -17 7 -32 11
-25 6 -27 3 -43 -47 -25 -75 -53 -121 -85 -140 -34 -20 -55 -21 -140 -3 -153
33 -1309 329 -1347 346 -25 11 -48 30 -57 49 -18 35 -21 119 -5 174 12 45 13
43 -27 51 l-31 7 -115 -453z m1598 -641 c10 -10 -46 -201 -77 -264 -72 -148
-205 -200 -402 -158 -137 29 -235 90 -281 174 -45 83 -45 183 1 372 l16 66
369 -92 c203 -51 372 -95 374 -98z"/>
<path d="M1295 11004 c-811 -213 -877 -226 -942 -185 -22 13 -43 43 -65 90
-30 64 -35 69 -58 64 -14 -3 -28 -8 -32 -12 -3 -3 28 -138 70 -299 l77 -293
29 5 c16 4 31 8 33 9 1 2 -1 28 -6 58 -11 65 0 132 26 168 38 50 120 79 513
181 211 55 387 99 392 98 4 -2 -182 -255 -413 -562 -231 -308 -418 -565 -416
-570 3 -6 40 -147 83 -313 70 -271 81 -303 99 -303 35 0 41 13 40 91 0 74 1
78 47 147 40 59 54 73 85 81 1268 335 1326 348 1401 308 36 -19 72 -71 93
-132 7 -22 16 -44 20 -48 11 -14 59 4 59 22 -1 22 -156 610 -163 618 -3 3 -17
3 -31 -1 -25 -6 -26 -7 -20 -80 4 -40 4 -90 0 -110 -9 -49 -55 -99 -113 -124
-27 -11 -284 -82 -573 -157 -289 -75 -540 -140 -558 -145 l-33 -9 24 32 c209
278 1107 1510 1107 1521 0 24 -11 46 -24 45 -6 0 -344 -88 -751 -195z"/>
<path d="M23223 9300 c-301 -54 -535 -235 -678 -525 -91 -184 -125 -316 -125
-480 0 -470 390 -878 892 -934 110 -13 242 1 352 36 296 93 482 286 625 645
89 225 86 459 -8 685 -111 269 -358 472 -674 554 -93 24 -297 34 -384 19z m47
-424 c243 -64 537 -212 707 -355 80 -68 161 -181 188 -261 27 -81 18 -198 -22
-282 -117 -249 -391 -294 -803 -131 -369 146 -622 327 -711 509 -31 63 -34 77
-34 160 0 84 3 95 37 166 59 119 136 184 253 215 78 20 269 10 385 -21z"/>
<path d="M2185 9151 c-115 -31 -220 -74 -650 -271 -225 -103 -421 -191 -433
-195 -13 -4 -46 -7 -74 -7 -73 1 -115 32 -160 117 -11 22 -22 41 -23 43 -5 6
-55 -22 -55 -31 0 -12 249 -557 260 -570 7 -8 60 12 60 22 -1 3 -9 31 -20 61
-38 108 -19 175 65 231 42 28 776 370 901 419 121 49 190 62 284 58 71 -4 95
-10 149 -37 84 -43 142 -105 192 -206 33 -66 43 -98 47 -153 10 -140 -43 -232
-179 -309 -70 -40 -960 -454 -1062 -494 -104 -41 -162 -17 -215 90 -43 86 -39
83 -72 66 l-29 -15 40 -87 c22 -49 111 -241 198 -428 147 -318 159 -340 181
-337 37 4 42 15 24 58 -46 108 -37 170 31 213 25 16 228 113 452 216 577 266
627 292 717 376 90 84 129 155 152 279 25 134 7 254 -64 420 -56 133 -110 219
-191 303 -59 61 -91 86 -155 117 -145 71 -242 84 -371 51z"/>
<path d="M3143 6329 c-139 -20 -285 -90 -395 -189 -77 -69 -164 -201 -202
-308 -30 -83 -31 -94 -31 -242 0 -144 2 -161 28 -235 85 -243 269 -417 514
-487 101 -29 285 -31 383 -4 205 55 387 202 480 386 95 189 105 425 27 620
-100 246 -327 423 -591 459 -88 12 -125 12 -213 0z"/>
<path d="M22005 6329 c-302 -44 -558 -283 -621 -579 -24 -113 -15 -290 20
-395 81 -239 268 -417 513 -487 101 -29 285 -31 383 -4 274 74 485 294 545
570 23 104 16 271 -15 371 -88 282 -325 484 -614 524 -87 12 -125 12 -211 0z"/>
<path d="M5557 5276 c-15 -19 -27 -37 -27 -40 0 -3 27 -26 60 -51 138 -106
156 -179 76 -310 -16 -27 -213 -306 -436 -620 -224 -313 -425 -601 -448 -639
-131 -218 -167 -421 -108 -619 65 -220 176 -363 424 -547 249 -186 497 -268
723 -241 220 26 304 65 455 216 145 145 183 194 592 765 190 267 362 502 381
523 100 111 217 123 351 36 34 -21 64 -39 69 -39 5 0 20 18 34 39 l26 39 -365
261 c-201 144 -368 261 -372 261 -4 -1 -19 -18 -34 -40 l-27 -39 58 -46 c89
-70 124 -126 129 -202 4 -53 0 -71 -25 -125 -17 -35 -177 -270 -357 -522 -419
-588 -452 -631 -566 -747 -79 -79 -110 -103 -180 -138 -191 -94 -385 -77 -574
50 -138 92 -219 202 -246 334 -25 121 7 218 138 416 101 153 847 1195 900
1257 54 63 87 82 142 82 53 0 96 -19 188 -81 l75 -52 28 34 c16 19 28 39 28
44 0 10 -1044 760 -1072 771 -8 3 -25 -10 -40 -30z"/>
<path d="M19306 5057 l-29 -23 22 -62 c27 -81 27 -98 -6 -131 -29 -28 -63 -39
-253 -81 -294 -64 -531 -245 -644 -492 -50 -109 -69 -196 -69 -318 0 -331 207
-596 538 -692 72 -21 99 -23 285 -22 186 0 226 4 435 37 393 63 506 66 638 17
70 -26 144 -92 177 -156 22 -43 25 -62 25 -154 0 -96 -3 -110 -29 -165 -60
-124 -222 -246 -386 -291 -95 -27 -307 -24 -414 5 -147 39 -348 152 -456 257
-20 19 -40 34 -45 34 -6 0 -26 -13 -45 -29 -26 -22 -32 -32 -24 -42 6 -8 133
-184 283 -391 150 -208 277 -380 282 -384 5 -3 25 6 43 20 32 24 33 27 33 93
-1 54 4 77 23 112 32 55 62 70 246 121 242 66 409 161 554 316 163 173 239
363 240 595 0 197 -63 356 -197 500 -128 135 -270 206 -463 230 -155 19 -325
4 -765 -66 -214 -33 -325 -41 -411 -26 -125 22 -190 62 -242 151 -24 40 -27
55 -27 140 0 89 2 99 34 158 67 122 214 225 371 258 90 19 263 14 355 -10 118
-32 231 -96 373 -212 l32 -27 40 28 c23 16 39 33 37 40 -8 19 -518 685 -525
685 -4 0 -20 -11 -36 -23z"/>
<path d="M17325 3683 c-231 -91 -421 -167 -423 -168 -1 -1 7 -24 18 -50 16
-38 24 -46 38 -40 9 4 46 16 82 26 154 45 240 10 315 -126 37 -67 456 -1127
504 -1275 69 -215 82 -364 42 -491 -88 -278 -443 -473 -710 -390 -133 41 -199
109 -287 295 -65 138 -573 1431 -594 1513 -34 129 7 191 169 258 50 21 91 43
91 50 0 7 -7 29 -16 50 -11 28 -19 35 -32 30 -76 -29 -1218 -479 -1221 -482
-6 -4 30 -93 37 -93 4 0 39 11 77 25 92 32 170 33 216 2 51 -34 91 -123 373
-838 140 -356 267 -671 281 -700 142 -283 331 -422 626 -459 128 -16 262 3
446 65 392 131 616 321 724 614 41 112 50 244 24 371 -29 145 -124 414 -339
958 -114 287 -214 550 -222 583 -37 143 27 257 177 315 24 9 48 20 52 24 4 4
0 27 -10 53 l-18 45 -420 -165z"/>
<path d="M7908 3631 l-16 -49 27 -7 c14 -3 63 -24 109 -46 70 -34 88 -48 113
-87 33 -52 35 -80 13 -164 -18 -70 -601 -1718 -645 -1824 -61 -145 -138 -173
-318 -116 l-88 29 -15 -48 c-14 -44 -14 -48 1 -54 76 -31 1204 -427 1263 -444
107 -31 231 -50 378 -57 339 -17 622 84 853 305 206 197 359 495 411 800 20
119 21 332 1 443 -73 423 -366 742 -858 937 -73 29 -1201 431 -1209 431 -2 0
-11 -22 -20 -49z m979 -482 c237 -94 343 -176 411 -321 61 -128 76 -198 76
-373 0 -170 -17 -283 -70 -468 -97 -339 -252 -636 -420 -802 -87 -86 -156
-133 -250 -167 -141 -50 -397 -11 -489 76 -47 45 -46 87 8 242 85 247 652
1844 654 1844 1 0 37 -14 80 -31z"/>
<path d="M14536 2769 c-209 -22 -381 -41 -383 -43 -2 -2 -1 -26 3 -52 l6 -49
102 -1 c82 0 108 -4 141 -21 82 -43 121 -108 144 -239 13 -77 113 -1082 109
-1101 -2 -8 -297 289 -678 682 -643 662 -677 695 -710 695 -52 -1 -879 -85
-883 -90 -2 -3 -2 -26 1 -52 l4 -48 77 0 c99 0 154 -26 249 -118 l69 -67 88
-890 c48 -490 87 -927 86 -973 0 -85 -21 -153 -59 -196 -27 -31 -128 -74 -203
-86 l-69 -12 0 -44 c0 -30 5 -46 15 -50 13 -5 835 70 893 82 18 4 22 11 22 42
0 20 -4 42 -8 48 -4 7 -44 11 -102 10 -78 0 -104 4 -145 23 -83 37 -127 91
-154 186 -11 41 -174 1636 -167 1642 2 2 424 -419 937 -937 831 -836 937 -940
964 -940 65 0 69 -81 -49 1106 -77 777 -107 1112 -104 1173 7 149 55 203 218
245 l70 18 0 49 0 49 -52 -1 c-29 -1 -224 -19 -432 -40z"/>
<path d="M10738 2743 c-3 -27 -3 -50 -1 -52 2 -3 32 -8 68 -12 95 -12 137 -25
184 -60 61 -43 75 -84 67 -189 -11 -133 -224 -1879 -237 -1939 -15 -70 -62
-124 -124 -141 -32 -9 -76 -11 -145 -6 l-99 7 -7 -46 c-3 -25 -4 -48 -1 -51 7
-7 1320 -165 1333 -160 7 3 13 25 15 50 5 51 9 48 -101 62 -107 12 -199 72
-216 140 -4 15 -4 65 -1 113 7 99 212 1805 228 1896 14 76 44 130 89 158 32
20 47 22 162 21 l126 -1 7 44 c3 25 5 47 2 49 -3 4 -1310 164 -1336 164 -5 0
-11 -21 -13 -47z"/>
</g>
</svg>
